<svg xmlns="http://www.w3.org/2000/svg" width="256" height="256" viewBox="0 0 256 256">
  <rect x="0" y="0" width="256" height="256" fill="#2f4a49"/>

  <rect x="28" y="196" width="200" height="14" rx="4" fill="#cf9f48"/>
  <rect x="56" y="70" width="46" height="132" fill="#e6d9bf"/>
  <rect x="154" y="70" width="46" height="132" fill="#e6d9bf"/>
  <rect x="98" y="100" width="60" height="102" fill="#e6d9bf"/>
  <rect x="56" y="58" width="12" height="14" fill="#e6d9bf"/>
  <rect x="73" y="58" width="12" height="14" fill="#e6d9bf"/>
  <rect x="90" y="58" width="12" height="14" fill="#e6d9bf"/>
  <rect x="154" y="58" width="12" height="14" fill="#e6d9bf"/>
  <rect x="171" y="58" width="12" height="14" fill="#e6d9bf"/>
  <rect x="188" y="58" width="12" height="14" fill="#e6d9bf"/>
  <rect x="98" y="88" width="14" height="14" fill="#e6d9bf"/>
  <rect x="121" y="88" width="14" height="14" fill="#e6d9bf"/>
  <rect x="144" y="88" width="14" height="14" fill="#e6d9bf"/>
  <rect x="56" y="76" width="46" height="6" fill="#cf9f48"/>
  <rect x="154" y="76" width="46" height="6" fill="#cf9f48"/>
  <rect x="98" y="106" width="60" height="6" fill="#cf9f48"/>
  <rect x="126" y="40" width="3" height="50" fill="#e6d9bf"/>
  <path d="M129 44 L150 50 L129 56 Z" fill="#cf9f48"/>
  <path d="M110 202 L110 150 A18 18 0 0 1 146 150 L146 202 Z" fill="#26403f"/>
  <rect x="116" y="150" width="24" height="50" rx="3" fill="#f3ead9"/>
  <rect x="121" y="160" width="14" height="3" rx="1" fill="#8a94a0"/>
  <rect x="121" y="168" width="14" height="3" rx="1" fill="#a7afbb"/>
  <rect x="121" y="176" width="10" height="3" rx="1" fill="#a7afbb"/>
  <rect x="112" y="140" width="32" height="2" fill="#cf9f48"/>
  <rect x="112" y="146" width="32" height="2" fill="#cf9f48"/>
  <rect x="116" y="138" width="2" height="14" fill="#cf9f48"/>
  <rect x="127" y="138" width="2" height="14" fill="#cf9f48"/>
  <rect x="138" y="138" width="2" height="14" fill="#cf9f48"/>
</svg>